<?xml version="1.0" standalone="no"?><!DOCTYPE svg PUBLIC "-//W3C//DTD SVG 1.1//EN" "http://www.w3.org/Graphics/SVG/1.1/DTD/svg11.dtd"><svg t="1774247575750" class="icon" viewBox="0 0 1024 1024" version="1.1" xmlns="http://www.w3.org/2000/svg" p-id="16181" xmlns:xlink="http://www.w3.org/1999/xlink" width="32" height="32"><path d="M319.87692125 213.93051594l10.74921844-18.77274094-2.725695-18.88791188-16.79565281 20.692245 8.77212937 16.96840782M252.4831625 253.95215844l-10.5188775 17.98574531 8.868105 11.90092031 8.38822969-14.95293-6.73745719-14.93373562" fill="#8A2BE2" p-id="16182"></path><path d="M920.37431281 400.98610625a19.19503219 19.19503219 0 0 0-19.19503218-19.19503219H712.01223687L907.62881094 148.64821156c0.57585094-0.67182656 0.74860594-1.4780175 1.20928781-2.20742906a17.08357875 17.08357875 0 0 0 2.01547781-3.66625125c0.44148562-1.2476775 0.55665562-2.49535406 0.74860594-3.80061656 0.15356063-0.92136187 0.55665562-1.72755281 0.55665656-2.68730438 0-0.30712031-0.15356063-0.53746125-0.19195031-0.82538625-0.03838969-1.3052625-0.40309594-2.49535406-0.74860687-3.76222593-0.30712031-1.20928688-0.47987625-2.41857375-1.01733657-3.51269157-0.40309594-0.92136187-1.13250656-1.66996781-1.68916218-2.53374375-0.86377687-1.2476775-1.68916312-2.45696438-2.80247532-3.47430093-0.19195031-0.172755-0.26873063-0.40309594-0.44148562-0.57585094-0.59504625-0.51826594-1.38204188-0.69102094-2.05386844-1.13250656a18.13930594 18.13930594 0 0 0-3.78142125-2.07306375c-1.22848219-0.44148562-2.51454938-0.57585094-3.78142125-0.76780125-0.90216656-0.13436531-1.72755281-0.53746125-2.66811-0.53746125h-460.68077531c-0.40309594 0-0.74860594 0.21114563-1.15170188 0.23034093a19.0414725 19.0414725 0 0 0-17.793795 9.36717563l-268.7304525 465.46033875c-0.21114563 0.34551094-0.19195031 0.74860594-0.38390062 1.11331218-0.57585094 1.15170188-0.88297125 2.36098875-1.20928688 3.62786063a18.12011062 18.12011062 0 0 0-0.74860687 3.70464094c-0.01919531 0.40309594-0.23034 0.74860594-0.23034 1.17089718 0 0.84458156 0.38390062 1.55479781 0.47987531 2.36098875a19.1566425 19.1566425 0 0 0 0.76780125 3.78142219 18.10091531 18.10091531 0 0 0 1.63157812 3.35913 17.27552906 17.27552906 0 0 0 1.95789282 2.87925469 18.56159625 18.56159625 0 0 0 3.05201062 2.70649969c0.61424063 0.46068094 1.03653188 1.13250656 1.72755281 1.51640812 0.34551094 0.19195031 0.72941156 0.19195031 1.07492157 0.36470531 1.17089719 0.57585094 2.39937938 0.90216656 3.66625125 1.22848219a17.793795 17.793795 0 0 0 3.72383625 0.74860594c0.40309594 0.01919531 0.72941156 0.23034 1.1325075 0.23034094h205.32926062l-92.90395687 346.68147843a19.19503219 19.19503219 0 0 0 13.59008343 23.51391469 18.88791188 18.88791188 0 0 0 18.29286563-5.16346406l0.11517 0.21114562L913.36812594 415.55513563c0.74860594-0.63343594 1.45882219-1.2476775 2.13064875-1.99628344l0.94055625-0.88297125-0.47987532 0.172755a19.00308187 19.00308187 0 0 0 4.41485719-11.86252969z" fill="#8A2BE2" p-id="16183"></path><path d="M883.46226594 51.19503219a19.19503219 19.19503219 0 0 1-19.19503313 19.19503218h-460.68077531a19.19503219 19.19503219 0 1 1 0-38.39006437h460.68077531a19.19503219 19.19503219 0 0 1 19.19503313 19.19503219zM891.65854438 315.89452812a19.19503219 19.19503219 0 0 1-19.19503219 19.19503219h-230.34038813a19.19503219 19.19503219 0 1 1 0-38.39006437h230.34038813a19.19503219 19.19503219 0 0 1 19.19503218 19.19503219z" fill="#8A2BE2" p-id="16184"></path><path d="M876.59044438 36.51083281a19.1566425 19.1566425 0 0 1 2.36098874 27.04580063l-222.08652374 264.68030062a19.13744719 19.13744719 0 0 1-27.02660626 2.36098875 19.13744719 19.13744719 0 0 1-2.36098875-27.04580062L849.52544844 38.87182156a19.19503219 19.19503219 0 0 1 27.06499594-2.36098875zM358.13262125 498.13216531a19.17583687 19.17583687 0 0 1 13.57088719 23.51391469l-99.3726825 370.80963375a19.19503219 19.19503219 0 1 1-37.08480188-9.94302656l99.3726825-370.80963469a19.19503219 19.19503219 0 0 1 23.51391469-13.57088719z" fill="#8A2BE2" p-id="16185"></path><path d="M881.65793281 329.88770656l-28.1975025-24.72320156-30.09781125 29.92505531L247.33889469 866.98390625l19.75168781 34.09037719 620.59459031-573.52837031" fill="#8A2BE2" p-id="16186"></path><path d="M241.964285 271.93790375L106.21701688 507.05785531a19.19503219 19.19503219 0 1 0 33.24579562 19.19503219l146.8419975-254.31498375h-44.340525zM401.18707812 34.57213438A19.19503219 19.19503219 0 0 0 374.96666469 41.59751656l-88.66185469 153.56025844h44.340525l77.58632062-134.36522625a19.23342281 19.23342281 0 0 0-7.04457749-26.22041438z" fill="#8A2BE2" p-id="16187"></path><path d="M303.10046281 204.69770563m-19.19503219 0a19.19503219 19.19503219 0 1 0 38.39006532 0 19.19503219 19.19503219 0 1 0-38.39006532 0Z" fill="#8A2BE2" p-id="16188"></path><path d="M268.43423469 264.64379187m-19.19503219 0a19.19503219 19.19503219 0 1 0 38.39006437 0 19.19503219 19.19503219 0 1 0-38.39006437 0Z" fill="#8A2BE2" p-id="16189"></path><path d="M203.57422063 497.47953406H122.83991469a19.19503219 19.19503219 0 1 0 0 38.39006438h80.73430594v-38.39006438zM353.18030281 497.47953406h-72.8259525v38.39006438h72.8259525a19.19503219 19.19503219 0 1 0 0-38.39006438z" fill="#8A2BE2" p-id="16190"></path><path d="M203.57422063 516.65537094m-19.19503219 0a19.19503219 19.19503219 0 1 0 38.39006437 0 19.19503219 19.19503219 0 1 0-38.39006437 0Z" fill="#8A2BE2" p-id="16191"></path><path d="M280.35435031 516.65537094m-19.19503312 0a19.19503219 19.19503219 0 1 0 38.39006531 0 19.19503219 19.19503219 0 1 0-38.39006531 0Z" fill="#8A2BE2" p-id="16192"></path><path d="M268.49181969 462.31423437a9.59751656 9.59751656 0 0 1-16.62289781-9.59751562l67.18261312-116.36028656a9.59751656 9.59751656 0 1 1 16.62289781 9.59751656l-67.18261312 116.36028563zM367.25026156 291.26730125a9.59751656 9.59751656 0 1 1-16.62289875-9.59751562l28.79254875-49.86869438a9.59751656 9.59751656 0 0 1 16.62289781 9.59751656l-28.79254781 49.86869344zM422.43597875 195.67604094a9.59751656 9.59751656 0 1 1-16.62289781-9.59751656l9.59751656-16.62289782a9.59751656 9.59751656 0 0 1 16.62289781 9.59751563l-9.59751656 16.62289875z" fill="#8A2BE2" p-id="16193"></path></svg>